<svg xmlns="http://www.w3.org/2000/svg" version="1.1" viewBox="-173.40 -173.40 346.79 346.79" width="346.79" height="346.79">
<title>A-09 盤｜盤寬 = 大畫布寬 × 0.963306（R_fill=173.395，盤緣圈半徑 = 大畫布寬 × 0.159155）</title>
<circle cx="0.25" cy="-1.08" r="1.229" fill="none" opacity="0.850" stroke="#FFFFFF" stroke-width="0.070"/>
<circle cx="-16.54" cy="105.50" r="2.344" fill="none" opacity="0.850" stroke="#FFFFFF" stroke-width="0.070"/>
<circle cx="9.85" cy="152.21" r="1.758" fill="none" opacity="0.850" stroke="#FFFFFF" stroke-width="0.070"/>
<circle cx="53.79" cy="-38.84" r="2.265" fill="none" opacity="0.850" stroke="#FFFFFF" stroke-width="0.070"/>
<circle cx="87.60" cy="-2.07" r="1.441" fill="none" opacity="0.850" stroke="#FFFFFF" stroke-width="0.070"/>
<circle cx="93.42" cy="2.16" r="1.667" fill="none" opacity="0.850" stroke="#FFFFFF" stroke-width="0.070"/>
<circle cx="127.83" cy="-0.40" r="2.094" fill="none" opacity="0.850" stroke="#FFFFFF" stroke-width="0.070"/>
<circle cx="156.32" cy="-38.15" r="3.265" fill="none" opacity="0.850" stroke="#FFFFFF" stroke-width="0.070"/>
<circle cx="115.47" cy="-72.15" r="1.100" fill="none" opacity="0.850" stroke="#FFFFFF" stroke-width="0.070"/>
<circle cx="52.46" cy="-84.38" r="1.100" fill="none" opacity="0.850" stroke="#FFFFFF" stroke-width="0.070"/>
<circle cx="-65.02" cy="-17.86" r="1.609" fill="none" opacity="0.850" stroke="#FFFFFF" stroke-width="0.070"/>
<circle cx="-74.32" cy="20.98" r="2.295" fill="none" opacity="0.850" stroke="#FFFFFF" stroke-width="0.070"/>
<circle cx="-122.19" cy="-5.76" r="1.872" fill="none" opacity="0.850" stroke="#FFFFFF" stroke-width="0.070"/>
<circle cx="-35.74" cy="-84.60" r="1.210" fill="none" opacity="0.850" stroke="#FFFFFF" stroke-width="0.070"/>
<circle cx="-58.82" cy="-72.49" r="1.100" fill="none" opacity="0.850" stroke="#FFFFFF" stroke-width="0.070"/>
<circle cx="-70.68" cy="-87.88" r="1.100" fill="none" opacity="0.850" stroke="#FFFFFF" stroke-width="0.070"/>
<circle cx="-41.69" cy="-104.82" r="1.100" fill="none" opacity="0.850" stroke="#FFFFFF" stroke-width="0.070"/>
<circle cx="26.85" cy="33.07" r="1.338" fill="none" opacity="0.850" stroke="#FFFFFF" stroke-width="0.070"/>
<circle cx="32.27" cy="39.09" r="1.100" fill="none" opacity="0.850" stroke="#FFFFFF" stroke-width="0.070"/>
<circle cx="24.46" cy="48.97" r="1.100" fill="none" opacity="0.850" stroke="#FFFFFF" stroke-width="0.070"/>
<circle cx="17.93" cy="46.36" r="1.100" fill="none" opacity="0.850" stroke="#FFFFFF" stroke-width="0.070"/>
<circle cx="10.23" cy="50.30" r="1.348" fill="none" opacity="0.850" stroke="#FFFFFF" stroke-width="0.070"/>
<circle cx="3.71" cy="52.76" r="1.137" fill="none" opacity="0.850" stroke="#FFFFFF" stroke-width="0.070"/>
<circle cx="-2.02" cy="61.31" r="1.304" fill="none" opacity="0.850" stroke="#FFFFFF" stroke-width="0.070"/>
</svg>