<svg xmlns="http://www.w3.org/2000/svg" version="1.1" viewBox="-178.44 -178.44 356.87 356.87" width="356.87" height="356.87">
<title>B-01 盤｜盤寬 = 大畫布寬 × 0.991308（R_fill=178.435，盤緣圈半徑 = 大畫布寬 × 0.159155）</title>
<g fill="none" stroke="#B78AFF" stroke-width="0.300" stroke-opacity="0.920" stroke-linecap="round" stroke-linejoin="round">
<path d="M 34.89 -168.62 L 36.83 -168.24 L 38.77 -167.85 L 40.70 -167.42 L 42.63 -166.98 L 44.56 -166.50 L 46.47 -166.00 L 48.38 -165.48 L 50.29 -164.93 L 52.18 -164.36 L 54.07 -163.76 L 55.96 -163.13 L 57.83 -162.49 L 59.70 -161.81 L 61.55 -161.12 L 63.40 -160.39 L 65.24 -159.65 L 67.06 -158.88 L 68.88 -158.09 L 70.69 -157.27 L 72.48 -156.43 L 74.26 -155.57 L 76.04 -154.68 L 77.79 -153.77 L 79.54 -152.84 L 81.27 -151.88 L 82.99 -150.91"/>
<path d="M 82.99 -150.91 L 84.19 -149.54 L 85.37 -148.16 L 86.52 -146.78 L 87.64 -145.38 L 88.74 -143.99 L 89.81 -142.58 L 90.86 -141.17 L 91.89 -139.75"/>
<path d="M 91.89 -139.75 L 92.22 -139.10 L 92.55 -138.44 L 92.87 -137.78 L 93.19 -137.13 L 93.50 -136.47 L 93.81 -135.81"/>
<path d="M 93.81 -135.81 L 94.84 -134.45 L 95.84 -133.07 L 96.83 -131.69 L 97.79 -130.31 L 98.74 -128.92 L 99.66 -127.52 L 100.56 -126.12 L 101.44 -124.72 L 102.30 -123.31 L 103.13 -121.89 L 103.95 -120.48 L 104.75 -119.05 L 105.53 -117.63 L 106.29 -116.20"/>
<path d="M 106.29 -116.20 L 107.85 -115.51 L 109.41 -114.80 L 110.97 -114.06 L 112.52 -113.31 L 114.07 -112.53 L 115.62 -111.73 L 117.17 -110.90 L 118.71 -110.05 L 120.25 -109.18 L 121.78 -108.28 L 123.31 -107.36"/>
<path d="M 37.09 -174.50 L 36.71 -173.52 L 36.34 -172.54 L 35.98 -171.56 L 35.61 -170.58 L 35.25 -169.60 L 34.89 -168.62"/>
<path d="M 85.69 -155.44 L 85.15 -154.53 L 84.61 -153.63 L 84.07 -152.72 L 83.53 -151.81 L 82.99 -150.91"/>
</g>
</svg>