<svg xmlns="http://www.w3.org/2000/svg" version="1.1" viewBox="-125.77 -125.77 251.54 251.54" width="251.54" height="251.54">
<title>X-02 盤｜盤寬 = 大畫布寬 × 0.698729（R_fill=125.771，盤緣圈半徑 = 大畫布寬 × 0.159155）</title>
<g fill="none" stroke="#6FA8FF" stroke-width="0.300" stroke-opacity="0.920" stroke-linecap="round" stroke-linejoin="round">
<path d="M 18.39 105.29 L 18.86 106.14 L 19.33 106.98 L 19.80 107.83 L 20.27 108.67 L 20.75 109.51 L 21.24 110.35 L 21.73 111.19 L 22.22 112.03 L 22.71 112.86 L 23.21 113.70"/>
<path d="M 23.21 113.70 L 23.16 114.03 L 23.11 114.36 L 23.06 114.70 L 23.01 115.03 L 22.96 115.36 L 22.90 115.69"/>
<path d="M 22.90 115.69 L 22.79 116.47 L 22.67 117.24 L 22.55 118.01 L 22.42 118.79 L 22.30 119.56 L 22.17 120.34"/>
<path d="M -12.90 111.55 L -12.37 112.13 L -11.83 112.71 L -11.29 113.29 L -10.75 113.87 L -10.20 114.44 L -9.64 115.02"/>
<path d="M -9.64 115.02 L -10.20 114.44 L -10.75 113.87 L -11.29 113.29 L -11.83 112.71 L -12.37 112.13 L -12.90 111.55"/>
<path d="M -12.90 111.55 L -12.46 111.46 L -12.02 111.37 L -11.58 111.28 L -11.14 111.19 L -10.71 111.10 L -10.27 111.00"/>
<path d="M -10.27 111.00 L -10.74 110.62 L -11.21 110.23 L -11.68 109.84 L -12.14 109.45 L -12.60 109.06 L -13.06 108.67"/>
<path d="M -13.06 108.67 L -13.86 108.89 L -14.66 109.11 L -15.47 109.33 L -16.28 109.54 L -17.09 109.75 L -17.90 109.95"/>
<path d="M -17.90 109.95 L -17.62 110.37 L -17.34 110.80 L -17.06 111.22 L -16.78 111.65 L -16.49 112.07 L -16.20 112.50"/>
<path d="M -16.20 112.50 L -15.65 112.34 L -15.10 112.19 L -14.54 112.03 L -13.99 111.87 L -13.45 111.71 L -12.90 111.55"/>
<path d="M -9.64 115.02 L -8.36 114.67 L -7.09 114.31 L -5.82 113.94 L -4.56 113.55 L -3.30 113.15 L -2.05 112.74 L -0.81 112.32 L 0.42 111.89"/>
<path d="M -9.64 115.02 L -8.39 115.23 L -7.14 115.43 L -5.88 115.62 L -4.62 115.80 L -3.36 115.97 L -2.10 116.12 L -0.83 116.26 L 0.44 116.39 L 1.71 116.50 L 2.99 116.60 L 4.26 116.69 L 5.54 116.77"/>
<path d="M -9.64 115.02 L -8.92 115.79 L -8.18 116.57 L -7.43 117.33 L -6.68 118.10 L -5.92 118.86 L -5.15 119.61 L -4.37 120.36 L -3.58 121.10 L -2.78 121.84 L -1.97 122.58 L -1.16 123.31 L -0.33 124.03 L 0.50 124.75 L 1.35 125.46"/>
<path d="M -4.56 125.14 L -5.02 124.30 L -5.47 123.46 L -5.91 122.63 L -6.35 121.79 L -6.78 120.94 L -7.21 120.10 L -7.63 119.26 L -8.04 118.41 L -8.45 117.57 L -8.85 116.72 L -9.25 115.87 L -9.64 115.02"/>
</g>
</svg>