<svg xmlns="http://www.w3.org/2000/svg" version="1.1" viewBox="-125.77 -125.77 251.54 251.54" width="251.54" height="251.54">
<title>X-02 盤｜盤寬 = 大畫布寬 × 0.698729（R_fill=125.771，盤緣圈半徑 = 大畫布寬 × 0.159155）</title>
<g fill="none" stroke="#B78AFF" stroke-width="0.300" stroke-opacity="0.920" stroke-linecap="round" stroke-linejoin="round">
<path d="M -13.35 -124.32 L -13.19 -123.44 L -13.04 -122.56 L -12.88 -121.68 L -12.73 -120.81"/>
<path d="M -5.76 -112.11 L -5.51 -113.02 L -5.26 -113.94 L -5.01 -114.85 L -4.75 -115.76 L -4.49 -116.67 L -4.23 -117.58 L -3.96 -118.49 L -3.69 -119.40 L -3.41 -120.31 L -3.13 -121.22 L -2.84 -122.12 L -2.56 -123.03"/>
<path d="M -2.56 -123.03 L -3.06 -123.84 L -3.57 -124.64 L -4.08 -125.44"/>
<path d="M 2.18 -125.33 L 2.84 -124.53 L 3.49 -123.72 L 4.14 -122.91 L 4.77 -122.10 L 5.40 -121.29 L 6.02 -120.47 L 6.63 -119.64 L 7.23 -118.82 L 7.83 -117.99 L 8.41 -117.16 L 8.99 -116.33 L 9.57 -115.49 L 10.13 -114.65 L 10.69 -113.81"/>
<path d="M 2.18 -125.33 L 1.80 -125.13 L 1.41 -124.92 L 1.03 -124.72 L 0.65 -124.51 L 0.26 -124.30 L -0.12 -124.09"/>
<path d="M -0.12 -124.09 L -0.52 -123.92 L -0.93 -123.74 L -1.34 -123.57 L -1.75 -123.39 L -2.15 -123.21 L -2.56 -123.03"/>
</g>
</svg>